<mxfile host="app.diagrams.net" modified="2021-09-15T01:36:16.016Z" agent="5.0 (X11; Linux x86_64) AppleWebKit/537.36 (KHTML, like Gecko) Chrome/93.0.4577.63 Safari/537.36" etag="-3AEGyuyZcVZUPAxOK7k" version="15.0.5" type="github">
  <diagram id="xtscK9WjyERpF1I-goba" name="Page-1">
    <mxGraphModel dx="1550" dy="832" grid="1" gridSize="10" guides="1" tooltips="1" connect="1" arrows="1" fold="1" page="1" pageScale="1" pageWidth="850" pageHeight="1100" math="0" shadow="0">
      <root>
        <mxCell id="0" />
        <mxCell id="1" parent="0" />
        <mxCell id="v2zS57Dw2yZGO_oqt7FS-2" value="Video-Reader" style="rounded=1;whiteSpace=wrap;html=1;" vertex="1" parent="1">
          <mxGeometry x="40" y="390" width="120" height="60" as="geometry" />
        </mxCell>
        <mxCell id="v2zS57Dw2yZGO_oqt7FS-3" value="" style="endArrow=classic;html=1;exitX=1;exitY=0.5;exitDx=0;exitDy=0;entryX=0;entryY=0.5;entryDx=0;entryDy=0;" edge="1" parent="1" source="v2zS57Dw2yZGO_oqt7FS-2" target="v2zS57Dw2yZGO_oqt7FS-4">
          <mxGeometry width="50" height="50" relative="1" as="geometry">
            <mxPoint x="80" y="450" as="sourcePoint" />
            <mxPoint x="280" y="370" as="targetPoint" />
          </mxGeometry>
        </mxCell>
        <mxCell id="v2zS57Dw2yZGO_oqt7FS-4" value="product" style="rounded=1;whiteSpace=wrap;html=1;" vertex="1" parent="1">
          <mxGeometry x="240" y="280" width="110" height="40" as="geometry" />
        </mxCell>
        <mxCell id="v2zS57Dw2yZGO_oqt7FS-5" value="" style="endArrow=classic;html=1;exitX=1;exitY=0.5;exitDx=0;exitDy=0;entryX=0;entryY=0.5;entryDx=0;entryDy=0;" edge="1" parent="1" source="v2zS57Dw2yZGO_oqt7FS-2" target="v2zS57Dw2yZGO_oqt7FS-6">
          <mxGeometry width="50" height="50" relative="1" as="geometry">
            <mxPoint x="80" y="450" as="sourcePoint" />
            <mxPoint x="240" y="420" as="targetPoint" />
          </mxGeometry>
        </mxCell>
        <mxCell id="v2zS57Dw2yZGO_oqt7FS-6" value="tool" style="rounded=1;whiteSpace=wrap;html=1;" vertex="1" parent="1">
          <mxGeometry x="250" y="535" width="110" height="30" as="geometry" />
        </mxCell>
        <mxCell id="v2zS57Dw2yZGO_oqt7FS-8" value="" style="endArrow=classic;html=1;exitX=1;exitY=0.5;exitDx=0;exitDy=0;entryX=0;entryY=0.5;entryDx=0;entryDy=0;" edge="1" parent="1" source="v2zS57Dw2yZGO_oqt7FS-2" target="v2zS57Dw2yZGO_oqt7FS-9">
          <mxGeometry width="50" height="50" relative="1" as="geometry">
            <mxPoint x="80" y="450" as="sourcePoint" />
            <mxPoint x="230" y="520" as="targetPoint" />
          </mxGeometry>
        </mxCell>
        <mxCell id="v2zS57Dw2yZGO_oqt7FS-9" value="smooth product" style="rounded=1;whiteSpace=wrap;html=1;" vertex="1" parent="1">
          <mxGeometry x="430" y="340" width="110" height="40" as="geometry" />
        </mxCell>
        <mxCell id="v2zS57Dw2yZGO_oqt7FS-10" value="" style="endArrow=classic;html=1;exitX=1;exitY=0.5;exitDx=0;exitDy=0;entryX=0.5;entryY=0;entryDx=0;entryDy=0;" edge="1" parent="1" source="v2zS57Dw2yZGO_oqt7FS-4" target="v2zS57Dw2yZGO_oqt7FS-9">
          <mxGeometry width="50" height="50" relative="1" as="geometry">
            <mxPoint x="80" y="450" as="sourcePoint" />
            <mxPoint x="130" y="400" as="targetPoint" />
          </mxGeometry>
        </mxCell>
        <mxCell id="v2zS57Dw2yZGO_oqt7FS-11" value="smooth tool" style="rounded=1;whiteSpace=wrap;html=1;" vertex="1" parent="1">
          <mxGeometry x="430" y="460" width="110" height="40" as="geometry" />
        </mxCell>
        <mxCell id="v2zS57Dw2yZGO_oqt7FS-12" value="" style="endArrow=classic;html=1;exitX=1;exitY=0.5;exitDx=0;exitDy=0;entryX=0.5;entryY=1;entryDx=0;entryDy=0;" edge="1" parent="1" source="v2zS57Dw2yZGO_oqt7FS-6" target="v2zS57Dw2yZGO_oqt7FS-11">
          <mxGeometry width="50" height="50" relative="1" as="geometry">
            <mxPoint x="80" y="450" as="sourcePoint" />
            <mxPoint x="130" y="400" as="targetPoint" />
          </mxGeometry>
        </mxCell>
        <mxCell id="v2zS57Dw2yZGO_oqt7FS-13" value="" style="endArrow=classic;html=1;exitX=1;exitY=0.5;exitDx=0;exitDy=0;entryX=0;entryY=0.5;entryDx=0;entryDy=0;" edge="1" parent="1" source="v2zS57Dw2yZGO_oqt7FS-2" target="v2zS57Dw2yZGO_oqt7FS-11">
          <mxGeometry width="50" height="50" relative="1" as="geometry">
            <mxPoint x="80" y="450" as="sourcePoint" />
            <mxPoint x="130" y="400" as="targetPoint" />
          </mxGeometry>
        </mxCell>
        <mxCell id="v2zS57Dw2yZGO_oqt7FS-14" value="statemachine" style="rounded=1;whiteSpace=wrap;html=1;" vertex="1" parent="1">
          <mxGeometry x="610" y="390" width="120" height="60" as="geometry" />
        </mxCell>
        <mxCell id="v2zS57Dw2yZGO_oqt7FS-15" value="" style="endArrow=classic;html=1;entryX=0;entryY=0.5;entryDx=0;entryDy=0;" edge="1" parent="1" target="v2zS57Dw2yZGO_oqt7FS-14">
          <mxGeometry width="50" height="50" relative="1" as="geometry">
            <mxPoint x="160" y="420" as="sourcePoint" />
            <mxPoint x="130" y="400" as="targetPoint" />
          </mxGeometry>
        </mxCell>
        <mxCell id="v2zS57Dw2yZGO_oqt7FS-16" value="" style="endArrow=classic;html=1;entryX=0.5;entryY=0;entryDx=0;entryDy=0;" edge="1" parent="1" target="v2zS57Dw2yZGO_oqt7FS-14">
          <mxGeometry width="50" height="50" relative="1" as="geometry">
            <mxPoint x="540" y="360" as="sourcePoint" />
            <mxPoint x="130" y="400" as="targetPoint" />
          </mxGeometry>
        </mxCell>
        <mxCell id="v2zS57Dw2yZGO_oqt7FS-17" value="" style="endArrow=classic;html=1;exitX=1;exitY=0.5;exitDx=0;exitDy=0;entryX=0.5;entryY=1;entryDx=0;entryDy=0;" edge="1" parent="1" source="v2zS57Dw2yZGO_oqt7FS-11" target="v2zS57Dw2yZGO_oqt7FS-14">
          <mxGeometry width="50" height="50" relative="1" as="geometry">
            <mxPoint x="80" y="450" as="sourcePoint" />
            <mxPoint x="130" y="400" as="targetPoint" />
          </mxGeometry>
        </mxCell>
        <mxCell id="v2zS57Dw2yZGO_oqt7FS-18" value="visiualization" style="rounded=1;whiteSpace=wrap;html=1;" vertex="1" parent="1">
          <mxGeometry x="820" y="390" width="120" height="60" as="geometry" />
        </mxCell>
        <mxCell id="v2zS57Dw2yZGO_oqt7FS-19" value="" style="endArrow=classic;html=1;exitX=1;exitY=0.5;exitDx=0;exitDy=0;entryX=0;entryY=0.5;entryDx=0;entryDy=0;" edge="1" parent="1" source="v2zS57Dw2yZGO_oqt7FS-14" target="v2zS57Dw2yZGO_oqt7FS-18">
          <mxGeometry width="50" height="50" relative="1" as="geometry">
            <mxPoint x="400" y="450" as="sourcePoint" />
            <mxPoint x="450" y="400" as="targetPoint" />
          </mxGeometry>
        </mxCell>
        <mxCell id="v2zS57Dw2yZGO_oqt7FS-20" value="keys" style="text;html=1;strokeColor=none;fillColor=none;align=center;verticalAlign=middle;whiteSpace=wrap;rounded=0;" vertex="1" parent="1">
          <mxGeometry x="750" y="400" width="40" height="20" as="geometry" />
        </mxCell>
        <mxCell id="v2zS57Dw2yZGO_oqt7FS-21" value="" style="endArrow=classic;html=1;exitX=0.5;exitY=1;exitDx=0;exitDy=0;entryX=0.5;entryY=1;entryDx=0;entryDy=0;" edge="1" parent="1" source="v2zS57Dw2yZGO_oqt7FS-2" target="v2zS57Dw2yZGO_oqt7FS-18">
          <mxGeometry width="50" height="50" relative="1" as="geometry">
            <mxPoint x="400" y="450" as="sourcePoint" />
            <mxPoint x="550" y="830" as="targetPoint" />
            <Array as="points">
              <mxPoint x="270" y="700" />
            </Array>
          </mxGeometry>
        </mxCell>
        <mxCell id="v2zS57Dw2yZGO_oqt7FS-22" value="keys" style="text;html=1;strokeColor=none;fillColor=none;align=center;verticalAlign=middle;whiteSpace=wrap;rounded=0;" vertex="1" parent="1">
          <mxGeometry x="590" y="360" width="40" height="20" as="geometry" />
        </mxCell>
        <mxCell id="v2zS57Dw2yZGO_oqt7FS-23" value="keys" style="text;html=1;strokeColor=none;fillColor=none;align=center;verticalAlign=middle;whiteSpace=wrap;rounded=0;" vertex="1" parent="1">
          <mxGeometry x="590" y="450" width="40" height="20" as="geometry" />
        </mxCell>
      </root>
    </mxGraphModel>
  </diagram>
</mxfile>
